<svg width="45" height="45" viewBox="0 0 45 45" fill="none" xmlns="http://www.w3.org/2000/svg">
<circle cx="22.5" cy="22.5" r="22.3768" fill="white" stroke="black" stroke-width="0.24635"/>
<path fill-rule="evenodd" clip-rule="evenodd" d="M22.3061 41.839C21.0794 41.8267 19.8509 41.6976 18.6374 41.4502C14.9106 40.6904 11.4906 38.8487 8.80498 36.1554C6.1194 33.4622 4.28752 30.0369 3.53845 26.308C3.29683 25.1052 3.17133 23.888 3.16041 22.6727H0.677734C0.688704 24.0514 0.830366 25.4324 1.10449 26.7969C1.9497 31.0045 4.01672 34.8694 7.047 37.9083C10.0773 40.9473 13.9363 43.0254 18.1415 43.8827C19.519 44.1635 20.9136 44.3093 22.3061 44.3217V41.839ZM22.6755 44.3219C24.1787 44.3098 25.6775 44.1425 27.1477 43.8222L26.5976 41.4012C25.308 41.6807 23.9937 41.8273 22.6755 41.8392V44.3219ZM30.6893 42.7283C29.6519 43.1482 28.5882 43.4859 27.5079 43.7405L26.9579 41.3196C27.9086 41.0944 28.8447 40.7967 29.7579 40.4271C30.0703 40.3006 30.3789 40.1662 30.6832 40.0242L31.7555 42.2633C31.4049 42.4274 31.0494 42.5825 30.6893 42.7283ZM22.2714 3.15913C20.9589 3.17472 19.6581 3.32373 18.3879 3.60017L17.8378 1.17924C19.278 0.864221 20.7533 0.69444 22.2419 0.676758L22.2714 3.15913ZM18.0277 3.68217L17.4777 1.26121C16.0184 1.60639 14.5973 2.10134 13.2374 2.73883L14.3097 4.97797C15.5026 4.42028 16.7485 3.98628 18.0277 3.68217ZM32.0887 42.1039C33.4571 41.4347 34.7474 40.6262 35.9403 39.6939L34.3949 37.7509C33.3477 38.5675 32.216 39.2765 31.0164 39.8647L32.0887 42.1039ZM12.9043 2.89844L13.9766 5.13759C13.1624 5.53733 12.3742 5.99541 11.6185 6.50978C11.2722 6.74549 10.9343 6.99187 10.6054 7.24841L9.05999 5.30541C9.43696 5.01073 9.82434 4.72789 10.2216 4.45749C11.0812 3.87248 11.9779 3.35202 12.9043 2.89844ZM39.3998 36.309C38.4513 37.4695 37.3884 38.5261 36.2294 39.4639L34.684 37.5209C35.6994 36.6974 36.6315 35.7709 37.4643 34.7541L39.3998 36.309ZM10.3164 7.47835L8.77091 5.53536C7.60747 6.477 6.54719 7.53326 5.60494 8.68577L7.54041 10.2406C8.36766 9.23105 9.29723 8.30503 10.3164 7.47835ZM43.7193 27.6055C43.3722 29.0477 42.8786 30.452 42.2457 31.7962L40.0088 30.7191C40.5625 29.5399 40.9952 28.3085 41.3009 27.0442L43.7193 27.6055ZM40.5075 34.83C41.0998 33.9651 41.6266 33.0622 42.0855 32.129L39.8486 31.0519C39.4441 31.8724 38.9802 32.6664 38.4592 33.4273C38.2157 33.7827 37.961 34.1292 37.6956 34.4661L39.6311 36.021C39.9359 35.6349 40.2282 35.2377 40.5075 34.83ZM43.8027 27.2457C44.125 25.7993 44.3007 24.317 44.3228 22.8209L41.8405 22.7842C41.821 24.1028 41.6669 25.4093 41.3843 26.6844L43.8027 27.2457ZM3.70476 17.9394C3.93115 17.0061 4.22766 16.0872 4.59353 15.1907C4.72034 14.88 4.85499 14.5732 4.99727 14.2705L2.7604 13.1935C2.59622 13.5417 2.441 13.8949 2.29499 14.2527C1.87903 15.2719 1.54252 16.3168 1.28634 17.3781L3.70476 17.9394ZM7.30904 10.5286C6.47761 11.5838 5.75582 12.7259 5.15759 13.9378L2.92072 12.8607C3.6013 11.4781 4.42431 10.1758 5.37358 8.97371L7.30904 10.5286ZM1.20271 17.7378C0.867437 19.2377 0.691693 20.7681 0.677922 22.3033H3.16062C3.17425 20.9569 3.32845 19.6148 3.62111 18.2991L1.20271 17.7378Z" fill="black"/>
<path d="M39.429 15.2146C41.1403 19.1831 41.402 23.627 40.1684 27.769C38.9348 31.911 36.2845 35.4876 32.6808 37.8733C29.0771 40.259 24.7495 41.302 20.4547 40.8199C16.1599 40.3378 12.1712 38.3613 9.18611 35.2361C6.20103 32.1108 4.40956 28.0357 4.12496 23.7233C3.84035 19.4108 5.08073 15.1356 7.62919 11.6452C10.1776 8.15471 13.872 5.67117 18.0662 4.62885C22.2604 3.58653 26.6876 4.05175 30.5735 5.94316L28.9825 9.21194C25.8633 7.69372 22.3097 7.32029 18.943 8.15696C15.5763 8.99362 12.6109 10.9871 10.5653 13.7889C8.51968 16.5906 7.52404 20.0223 7.75249 23.4839C7.98093 26.9454 9.41893 30.2165 11.815 32.7251C14.2111 35.2337 17.4128 36.8202 20.8602 37.2072C24.3076 37.5941 27.7814 36.7569 30.674 34.8419C33.5666 32.9269 35.694 30.0561 36.6842 26.7313C37.6744 23.4066 37.4643 19.8395 36.0907 16.654L39.429 15.2146Z" fill="black"/>
<path fill-rule="evenodd" clip-rule="evenodd" d="M17.4459 10.2425C19.0435 9.583 20.754 9.24206 22.4814 9.23828V12.0712C21.1248 12.075 19.7816 12.3431 18.5269 12.8611C17.2333 13.3951 16.0603 14.1838 15.0776 15.1802C14.095 16.1767 13.3227 17.3605 12.8067 18.6614C12.3235 19.8796 12.0742 21.1772 12.0712 22.4862H9.23828C9.24131 20.8198 9.55817 19.1678 10.1733 17.6169C10.8294 15.963 11.8112 14.4579 13.0606 13.191C14.3099 11.9242 15.8013 10.9215 17.4459 10.2425Z" fill="#09DE0B"/>
<path fill-rule="evenodd" clip-rule="evenodd" d="M35.7823 22.5273L32.9494 22.5273C32.9472 23.8443 32.6958 25.1499 32.2077 26.3748C31.6845 27.6875 30.9003 28.8804 29.9025 29.8811C28.9047 30.8817 27.7142 31.6694 26.403 32.1964C25.1694 32.6921 23.8533 32.9474 22.5254 32.9493V35.7822C24.215 35.7803 25.8898 35.4557 27.4594 34.825C29.1264 34.155 30.64 33.1536 31.9086 31.8813C33.1771 30.6091 34.1742 29.0926 34.8393 27.4236C35.4605 25.8648 35.7801 24.2033 35.7823 22.5273Z" fill="#09DE0B"/>
<path d="M13.6533 21.9667C13.9211 17.496 17.5008 13.9178 21.9721 13.6523V21.9667H13.6533Z" fill="#FE0000"/>
<path d="M13.6523 23.0342C13.9156 27.5093 17.4972 31.0924 21.9717 31.358V23.0342H13.6523Z" fill="black"/>
<path d="M23.0391 23.0342V31.358C27.5135 31.0924 31.0951 27.5093 31.3584 23.0342H23.0391Z" fill="#FE0000"/>
<path d="M31.3578 21.9667C31.0901 17.496 27.5104 13.9178 23.0391 13.6523V21.9667H31.3578Z" fill="black"/>
<path d="M24.7157 2.13858L25.4172 2.23C25.3329 2.58929 25.1773 2.85749 24.9503 3.03462C24.7244 3.21186 24.4459 3.28326 24.1149 3.2488C23.7784 3.21377 23.5082 3.07188 23.3043 2.82314C23.1017 2.5734 23.0178 2.28137 23.0526 1.94705C23.0876 1.61053 23.2324 1.33952 23.4869 1.13402C23.7425 0.928643 24.0396 0.843583 24.3784 0.878844C24.7116 0.91353 24.9779 1.05502 25.1773 1.3033C25.3156 1.47496 25.4023 1.70314 25.4373 1.98785L24.7124 1.9609C24.6576 1.70536 24.5176 1.56588 24.2925 1.54245C24.1491 1.52752 24.0253 1.56482 23.9212 1.65436C23.8182 1.74402 23.7587 1.86553 23.7427 2.0189C23.7273 2.16675 23.7604 2.29399 23.8418 2.40062C23.9234 2.50614 24.0343 2.5662 24.1744 2.58078C24.3168 2.5956 24.4343 2.56489 24.527 2.48866C24.6208 2.41255 24.6837 2.29585 24.7157 2.13858Z" fill="black"/>
<path d="M28.8807 1.76223C29.2007 1.79552 29.4627 1.94046 29.6669 2.19703C29.8722 2.45372 29.958 2.74426 29.9242 3.06865C29.8899 3.39856 29.7454 3.66682 29.4908 3.87343C29.2362 4.08004 28.944 4.16618 28.6141 4.13186C28.2864 4.09776 28.0187 3.95281 27.8111 3.69699C27.6035 3.44117 27.5168 3.14942 27.5509 2.82172C27.5853 2.4907 27.7309 2.22256 27.9876 2.01728C28.2454 1.81212 28.5431 1.7271 28.8807 1.76223ZM28.7916 2.4255C28.6537 2.41115 28.5309 2.44968 28.4232 2.54108C28.3156 2.63249 28.2543 2.74991 28.2394 2.89335C28.2244 3.03679 28.2602 3.16431 28.3468 3.27593C28.4344 3.38765 28.5466 3.45063 28.6835 3.46487C28.8225 3.47934 28.9452 3.44136 29.0517 3.35094C29.1593 3.25953 29.2207 3.14156 29.2357 2.99702C29.2507 2.85247 29.2149 2.72495 29.1283 2.61444C29.0429 2.50294 28.9306 2.43996 28.7916 2.4255Z" fill="black"/>
<path d="M31.3622 5.23646L32.1755 3.81542C32.2764 3.63923 32.4122 3.52588 32.583 3.47537C32.7538 3.42486 32.9244 3.44837 33.0948 3.54591C33.297 3.66164 33.3993 3.84354 33.4017 4.09163C33.5255 4.02952 33.6375 3.99906 33.7378 4.00023C33.8386 4.00044 33.9449 4.03251 34.0566 4.09643C34.2337 4.19783 34.3375 4.33137 34.368 4.49706C34.3984 4.66274 34.3535 4.85053 34.2334 5.06041L33.4489 6.43091L32.8626 6.09531L33.5967 4.8129C33.633 4.74936 33.6517 4.70445 33.6527 4.67817C33.6552 4.65148 33.641 4.62931 33.6102 4.61168C33.5524 4.57861 33.4955 4.61118 33.4393 4.70939L32.6994 6.0019L32.1131 5.6663L32.8471 4.38389C32.883 4.32131 32.9016 4.2764 32.9032 4.24916C32.9047 4.22191 32.8901 4.19948 32.8593 4.18184C32.8015 4.14878 32.7426 4.18472 32.6825 4.28966L31.9485 5.57206L31.3622 5.23646Z" fill="black"/>
<path d="M36.2463 7.69506L36.6527 7.2595C36.7524 7.35258 36.8379 7.361 36.909 7.28476C36.9741 7.215 36.9685 7.14456 36.8923 7.07342C36.8152 7.00152 36.7321 7.01343 36.6428 7.10914L35.6302 8.1944L35.1362 7.73352L36.1011 6.69936C36.201 6.5923 36.2933 6.51454 36.3779 6.46608C36.4642 6.41757 36.5609 6.38793 36.668 6.37715C36.7877 6.36594 36.9092 6.38214 37.0323 6.42575C37.1555 6.46936 37.2637 6.53468 37.357 6.62171C37.5257 6.77912 37.6143 6.96795 37.6227 7.18821C37.6319 7.40923 37.5582 7.60369 37.4015 7.77159C37.2494 7.93462 37.0746 8.01877 36.877 8.02405C36.6958 8.02954 36.5104 7.94374 36.3206 7.76666L36.2463 7.69506Z" fill="black"/>
<path d="M40.5059 10.3526L39.3165 11.2209C39.1069 11.374 38.8935 11.4336 38.6765 11.3998C38.4602 11.3668 38.2761 11.2464 38.1243 11.0386C37.9732 10.8316 37.9184 10.6285 37.9598 10.4294C38.0018 10.2311 38.137 10.0486 38.3655 9.88177L39.5374 9.02614L39.9358 9.57176L38.7652 10.4264C38.6532 10.5082 38.6264 10.5889 38.6846 10.6687C38.7408 10.7457 38.825 10.7434 38.9369 10.6616L40.1075 9.80694L40.5059 10.3526Z" fill="black"/>
<path d="M41.64 13.6943L40.1958 14.4261L39.8904 13.8235L41.3347 13.0917L41.1007 12.63L41.6826 12.3352L42.455 13.8596L41.8732 14.1544L41.64 13.6943Z" fill="black"/>
<path d="M42.7502 17.6063L42.2619 17.7384L42.1468 17.3127C42.1312 17.2549 42.1115 17.216 42.0877 17.196C42.0642 17.177 42.0321 17.1731 41.9914 17.1841C41.9453 17.1965 41.9181 17.2171 41.9098 17.2458C41.9025 17.2742 41.9092 17.3264 41.9297 17.4024L42.0483 17.8409L41.4218 18.0103L41.2833 17.4979C41.2182 17.2569 41.2257 17.0573 41.3058 16.8989C41.387 16.7401 41.5363 16.6314 41.7537 16.5726L42.613 16.3403C42.8229 16.2835 43.0019 16.2995 43.15 16.3882C43.2984 16.4779 43.4021 16.632 43.4612 16.8505L43.6145 17.4175L42.9848 17.5877L42.8723 17.1717C42.8419 17.0593 42.7903 17.0129 42.7175 17.0326C42.6746 17.0442 42.6483 17.0656 42.6384 17.0971C42.6296 17.1282 42.6344 17.178 42.6529 17.2465L42.7502 17.6063Z" fill="black"/>
<path d="M43.5492 20.6423L41.8934 20.7687L41.842 20.095L44.1068 19.9222L44.1727 20.7866C44.1928 21.0499 44.1431 21.259 44.0237 21.4138C43.89 21.5865 43.7109 21.6813 43.4863 21.6985C43.2574 21.7159 43.0567 21.6306 42.8844 21.4423L41.9799 21.9019L41.9259 21.1951L42.631 20.8125L43.2134 20.7681L43.2174 20.8212C43.2283 20.9627 43.2945 21.0289 43.4162 21.0196C43.5235 21.0114 43.5709 20.9255 43.5584 20.7618L43.5492 20.6423Z" fill="black"/>
<path d="M31.9669 8.99397L32.7682 9.52829C32.4488 9.91616 32.0972 10.1498 31.7134 10.2293C31.3308 10.3095 30.9478 10.2289 30.5645 9.98738C30.1747 9.74183 29.9304 9.40579 29.8314 8.97927C29.7345 8.55228 29.808 8.14519 30.0519 7.75802C30.2975 7.36828 30.6375 7.12466 31.072 7.02713C31.5078 6.93041 31.9219 7.00563 32.3141 7.25279C32.7 7.49593 32.9399 7.82915 33.0338 8.25245C33.0992 8.54533 33.0675 8.87612 32.9387 9.24483L32.0699 8.7751C32.157 8.4301 32.0702 8.17548 31.8095 8.01124C31.6434 7.90658 31.4698 7.87754 31.2887 7.92411C31.1089 7.97148 30.9631 8.08398 30.8512 8.2616C30.7433 8.43282 30.707 8.60807 30.7422 8.78734C30.7782 8.96533 30.8773 9.10545 31.0396 9.2077C31.2045 9.31155 31.3664 9.34488 31.5255 9.30767C31.6859 9.27127 31.833 9.1667 31.9669 8.99397Z" fill="black"/>
<path d="M34.3864 8.87466L35.0549 9.5064L33.7929 10.8417C33.6944 10.946 33.645 11.0313 33.6447 11.0975C33.6466 11.1637 33.6969 11.2435 33.7957 11.3368L33.8303 11.3695L33.2141 12.0215L33.0363 11.8535C32.7926 11.6232 32.6696 11.3729 32.6673 11.1027C32.6661 10.8314 32.7847 10.5695 33.0233 10.317L34.3864 8.87466Z" fill="black"/>
<path d="M37.2528 12.0453L35.6713 13.2776C35.3926 13.4948 35.1048 13.585 34.8081 13.5482C34.5123 13.5126 34.2567 13.3566 34.0413 13.0802C33.8269 12.805 33.7436 12.531 33.7914 12.2583C33.8401 11.9867 34.0164 11.7325 34.3202 11.4958L35.8784 10.2815L36.4438 11.007L34.8873 12.2199C34.7384 12.3359 34.7053 12.447 34.7879 12.553C34.8677 12.6554 34.9821 12.6487 35.131 12.5326L36.6874 11.3198L37.2528 12.0453Z" fill="black"/>
<path d="M37.785 12.8956L38.3398 13.8728C38.6686 14.452 38.6051 14.871 38.1494 15.1297C37.9235 15.258 37.6794 15.2654 37.4171 15.1521C37.4556 15.5106 37.3146 15.7808 36.9941 15.9627C36.7485 16.1021 36.5047 16.1285 36.2628 16.0419C36.1462 15.9986 36.0473 15.9376 35.966 15.8587C35.8847 15.7797 35.7986 15.6602 35.7076 15.4999L35.6215 15.3482L36.313 14.9557L36.3902 15.0916C36.4357 15.1717 36.4776 15.2226 36.5159 15.2443C36.5556 15.2652 36.601 15.2611 36.6522 15.232C36.7389 15.1828 36.7442 15.0912 36.6682 14.9572L36.581 14.8036L37.2981 14.3965C37.3816 14.5436 37.4739 14.5884 37.575 14.531C37.6683 14.478 37.6772 14.3852 37.6019 14.2526L37.5181 14.1048L35.5499 15.2222L35.0959 14.4223L37.785 12.8956Z" fill="black"/>
</svg>
