<svg width="531" height="614" viewBox="0 0 531 614" fill="none" xmlns="http://www.w3.org/2000/svg">
<circle cx="265.512" cy="348.439" r="265.439" fill="#E2EEF9"/>
<path d="M402.562 498.676C418.822 487.442 438.623 480.849 459.986 480.849C471.358 480.849 482.287 482.717 492.476 486.159C489.001 492 481.501 503.5 473.001 514C411.501 527 134.001 551 97.5014 529.5L55 509C53.5 508.5 51.5 505.5 49.2188 502.337C60.1009 479.558 83.1392 463.37 110.424 462.249C127.411 461.551 143.25 466.808 155.867 476.138C164.057 466.076 175.994 459.106 189.591 457.286C187.998 454.001 187.105 450.322 187.105 446.437C187.105 432.534 198.535 421.264 212.637 421.264C224.112 421.264 233.82 428.728 237.038 439C240.081 438.012 243.334 437.478 246.714 437.478C250.511 437.478 254.149 438.153 257.51 439.388C259.41 437.989 261.453 436.767 263.613 435.748C261.521 432.911 260.287 429.42 260.287 425.644C260.287 416.146 268.099 408.447 277.733 408.447C287.366 408.447 295.176 416.146 295.176 425.644C295.176 428.939 294.237 432.018 292.607 434.633C306.333 439.854 316.07 452.984 316.07 468.354C316.07 469.435 316.022 470.504 315.927 471.561C319.022 472.321 322.056 473.262 325.017 474.374C333.363 466.808 344.501 462.188 356.733 462.188C379.234 462.188 398.033 477.823 402.562 498.676Z" fill="white"/>
<path d="M265.512 613.877C353.116 613.877 430.807 571.439 479.15 506H265.512H51.874C100.217 571.439 177.909 613.877 265.512 613.877Z" fill="white"/>
<path d="M124.833 250.397C128.432 247.121 132.25 247.703 134.231 248.355C135.969 243.878 139.71 238.776 147.749 238.776C162.067 238.776 163.213 252.864 163.213 252.864C173.296 249.813 175.243 258.733 175.243 259.085H121.053C121.053 253.333 124.833 250.397 124.833 250.397" fill="white"/>
<path d="M505.13 392.417C503.149 391.765 499.33 391.182 495.731 394.459C495.731 394.459 491.951 397.395 491.951 403.147H525.309C525.309 403.147 527.5 392.5 528.33 385.903C526.079 384.116 522.96 382.837 518.647 382.837C510.609 382.837 506.867 387.94 505.13 392.417Z" fill="white"/>
<path d="M394.433 285.046C397.055 285.046 399.512 285.754 401.642 286.986C405.716 279.882 413.23 275.098 421.853 275.098C429.902 275.098 437.004 279.262 441.226 285.599C443.453 277.967 450.352 272.4 458.525 272.4C467.802 272.4 475.436 279.569 476.463 288.792C477.207 288.672 477.968 288.591 478.747 288.591C484.406 288.591 489.31 291.867 491.772 296.667H380.121C381.649 290.008 387.469 285.046 394.433 285.046" fill="white"/>
<path d="M28.4035 319.959C20.2301 319.959 13.3316 325.526 11.1043 333.158C8.63444 329.451 5.17922 326.488 1.12534 324.667C1.07487 324.802 0.706582 329.347 0.500045 333C0.197676 338.348 0.108358 343.473 0.108403 344.227H61.6504C59.1884 339.427 54.2847 336.15 48.6251 336.15C47.8466 336.15 47.0861 336.231 46.3414 336.351C45.3146 327.128 37.6805 319.959 28.4035 319.959Z" fill="white"/>
<path d="M153.486 167.622C153.486 170.472 151.177 172.782 148.327 172.782C145.477 172.782 143.166 170.472 143.166 167.622C143.166 164.771 145.477 162.463 148.327 162.463C151.177 162.463 153.486 164.771 153.486 167.622Z" fill="#769AD7"/>
<path d="M359.803 140.492L356.712 138.836L356.256 138.38L354.597 135.289C354.18 134.505 353.058 134.505 352.636 135.289L350.98 138.38L350.524 138.836L347.43 140.492C346.65 140.914 346.65 142.036 347.43 142.456L350.524 144.112L350.98 144.568L352.636 147.659C353.058 148.442 354.18 148.442 354.597 147.659L356.256 144.568L356.712 144.112L359.803 142.456C360.586 142.036 360.586 140.914 359.803 140.492Z" fill="#E2EEF9"/>
<path d="M177.594 37.0341L173.695 34.9445C173.453 34.8136 173.252 34.615 173.121 34.3713L171.034 30.4741C170.504 29.488 169.089 29.488 168.561 30.4741L166.471 34.3713C166.34 34.615 166.144 34.8136 165.898 34.9445L162.003 37.0341C161.015 37.5621 161.015 38.977 162.003 39.5051L165.898 41.5947C166.144 41.7256 166.34 41.9242 166.471 42.1679L168.561 46.0651C169.089 47.0512 170.504 47.0512 171.034 46.0651L173.121 42.1679C173.252 41.9242 173.453 41.7256 173.695 41.5947L177.594 39.5051C178.578 38.977 178.578 37.5621 177.594 37.0341Z" fill="#B2D1F0"/>
<path d="M447.946 115.306L443.234 112.779C442.941 112.621 442.697 112.38 442.541 112.086L440.014 107.372C439.375 106.181 437.665 106.181 437.026 107.372L434.499 112.086C434.341 112.38 434.099 112.621 433.806 112.779L429.092 115.306C427.9 115.945 427.9 117.653 429.092 118.294L433.806 120.822C434.099 120.98 434.341 121.219 434.499 121.514L437.026 126.226C437.665 127.42 439.375 127.42 440.014 126.226L442.541 121.514C442.697 121.219 442.941 120.98 443.234 120.822L447.946 118.294C449.14 117.653 449.14 115.945 447.946 115.306Z" fill="#B2D1F0"/>
<path d="M80.6184 97.1586L76.3038 94.8455C76.033 94.7011 75.8118 94.48 75.6674 94.2114L73.3544 89.8968C72.7699 88.8046 71.2038 88.8046 70.6193 89.8968L68.3041 94.2114C68.1597 94.48 67.9385 94.7011 67.67 94.8455L63.3553 97.1586C62.2631 97.7453 62.2631 99.3092 63.3553 99.8959L67.67 102.209C67.9385 102.353 68.1597 102.574 68.3041 102.843L70.6193 107.158C71.2038 108.25 72.7699 108.25 73.3544 107.158L75.6674 102.843C75.8118 102.574 76.033 102.353 76.3038 102.209L80.6184 99.8959C81.7106 99.3092 81.7106 97.7453 80.6184 97.1586Z" fill="#769AD7"/>
<path d="M421.686 223.775L417.371 221.462C417.1 221.317 416.879 221.096 416.735 220.828L414.422 216.513C413.837 215.421 412.271 215.421 411.687 216.513L409.371 220.828C409.227 221.096 409.006 221.317 408.737 221.462L404.423 223.775C403.33 224.362 403.33 225.925 404.423 226.512L408.737 228.825C409.006 228.97 409.227 229.191 409.371 229.459L411.687 233.774C412.271 234.866 413.837 234.866 414.422 233.774L416.735 229.459C416.879 229.191 417.1 228.97 417.371 228.825L421.686 226.512C422.778 225.925 422.778 224.362 421.686 223.775Z" fill="#769AD7"/>
<path d="M368.751 70.258L365.592 68.5655L365.129 68.1006L363.435 64.9436C363.008 64.1448 361.862 64.1448 361.435 64.9436L359.741 68.1006L359.276 68.5655L356.119 70.258C355.32 70.6867 355.32 71.8331 356.119 72.2618L359.276 73.9543L359.741 74.4192L361.435 77.5762C361.862 78.375 363.008 78.375 363.435 77.5762L365.129 74.4192L365.592 73.9543L368.751 72.2618C369.55 71.8331 369.55 70.6867 368.751 70.258Z" fill="#769AD7"/>
<path d="M280.885 509.476H235.917V298.283H280.885V509.476Z" fill="white"/>
<path d="M275.582 310.346C275.582 301.263 268.219 293.899 259.138 293.899C250.055 293.899 242.692 301.263 242.692 310.346C242.692 310.346 240.568 349.227 259.138 369.925C277.705 349.227 275.582 310.346 275.582 310.346Z" fill="#E2EEF9"/>
<path d="M201.708 221.299C201.708 221.299 140.13 251.12 164.53 339.062C164.53 339.062 177.56 294.855 219.339 283.408L201.708 221.299Z" fill="#769AD7"/>
<path d="M317.122 221.299C317.122 221.299 378.701 251.12 354.298 339.062C354.298 339.062 341.27 294.855 299.491 283.408L317.122 221.299Z" fill="#769AD7"/>
<path d="M279.398 301.748H237.542C235.89 301.748 234.46 300.603 234.094 298.992L231.797 288.858C231.296 286.649 232.977 284.541 235.245 284.541H281.695C283.963 284.541 285.647 286.649 285.143 288.858L282.844 298.992C282.48 300.603 281.048 301.748 279.398 301.748" fill="#374783"/>
<path d="M198.068 197.544C198.068 197.544 204.492 256.526 224.346 293.9C224.346 293.9 255.882 278.717 293.259 293.9C293.259 293.9 316.032 262.366 320.706 192.871C323.396 152.827 320.18 107.108 306.918 67.7168H214.288C201.963 99.8058 193.182 142.896 198.068 197.544Z" fill="#B2D1F0"/>
<path d="M251.97 3.80645C242.653 14.3471 226.678 35.4758 214.287 67.7161H306.917C298.432 42.5097 285.84 19.8894 268.013 3.02567C263.425 -1.31381 256.152 -0.925678 251.97 3.80645" fill="#374783"/>
<path d="M257.77 194.691C257.77 194.691 229.357 259.251 257.77 336.012C257.77 336.012 289.342 271.96 257.77 194.691Z" fill="#769AD7"/>
<path d="M296.161 134.786C296.161 154.524 280.159 170.526 260.421 170.526C240.684 170.526 224.683 154.524 224.683 134.786C224.683 115.047 240.684 99.0453 260.421 99.0453C280.159 99.0453 296.161 115.047 296.161 134.786Z" fill="#374783"/>
<path d="M285.232 134.785C285.232 148.487 274.125 159.596 260.421 159.596C246.719 159.596 235.609 148.487 235.609 134.785C235.609 121.083 246.719 109.973 260.421 109.973C274.125 109.973 285.232 121.083 285.232 134.785Z" fill="#F4C059"/>
</svg>
