<svg width="90" height="90" viewBox="0 0 90 90" fill="none" xmlns="http://www.w3.org/2000/svg">
<circle cx="45" cy="45" r="45" fill="url(#paint0_linear_368_69)"/>
<path fill-rule="evenodd" clip-rule="evenodd" d="M46.7751 52.744C46.7751 51.5325 45.793 50.5503 44.5814 50.5503C43.3698 50.5503 42.3877 51.5325 42.3877 52.744L42.3877 59.8415H35.807C34.5954 59.8415 33.6133 60.8237 33.6133 62.0352C33.6133 63.2468 34.5955 64.229 35.807 64.229H53.0988C54.3103 64.229 55.2925 63.2468 55.2925 62.0352C55.2925 60.8237 54.3103 59.8415 53.0988 59.8415H46.7751L46.7751 52.744Z" fill="url(#paint1_linear_368_69)"/>
<rect x="22" y="25" width="45.2941" height="29.0347" rx="2.32277" fill="url(#paint2_linear_368_69)"/>
<path d="M22 48.2278H67.2941V51.7119C67.2941 52.9948 66.2542 54.0347 64.9713 54.0347H24.3228C23.0399 54.0347 22 52.9948 22 51.7119V48.2278Z" fill="#849BBF"/>
<defs>
<linearGradient id="paint0_linear_368_69" x1="28.5" y1="-11" x2="56" y2="90" gradientUnits="userSpaceOnUse">
<stop stop-color="#426194"/>
<stop offset="1" stop-color="#294470"/>
</linearGradient>
<linearGradient id="paint1_linear_368_69" x1="44.4529" y1="50.5503" x2="44.4529" y2="64.4871" gradientUnits="userSpaceOnUse">
<stop stop-color="#EAF5FF"/>
<stop offset="1" stop-color="#D4E7F8"/>
</linearGradient>
<linearGradient id="paint2_linear_368_69" x1="44.6471" y1="25" x2="44.6471" y2="54.0347" gradientUnits="userSpaceOnUse">
<stop stop-color="#EAF5FF"/>
<stop offset="1" stop-color="#D4E7F8"/>
</linearGradient>
</defs>
</svg>
