<svg width="597" height="614" viewBox="0 0 597 614" fill="none" xmlns="http://www.w3.org/2000/svg">
<circle cx="315.512" cy="348.439" r="265.439" fill="#E2EEF9"/>
<path d="M452.562 498.676C468.822 487.442 488.623 480.849 509.986 480.849C521.358 480.849 532.287 482.717 542.476 486.159C539.001 492 531.501 503.5 523.001 514C461.501 527 184.001 551 147.501 529.5L105 509C103.5 508.5 101.5 505.5 99.2188 502.337C110.101 479.558 133.139 463.37 160.424 462.249C177.411 461.551 193.25 466.808 205.867 476.138C214.057 466.076 225.994 459.106 239.591 457.286C237.998 454.001 237.105 450.322 237.105 446.437C237.105 432.534 248.535 421.264 262.637 421.264C274.112 421.264 283.82 428.728 287.038 439C290.081 438.012 293.334 437.478 296.714 437.478C300.511 437.478 304.149 438.153 307.51 439.388C309.41 437.989 311.453 436.767 313.613 435.748C311.521 432.911 310.287 429.42 310.287 425.644C310.287 416.146 318.099 408.447 327.733 408.447C337.366 408.447 345.176 416.146 345.176 425.644C345.176 428.939 344.237 432.018 342.607 434.633C356.333 439.854 366.07 452.984 366.07 468.354C366.07 469.435 366.022 470.504 365.927 471.561C369.022 472.321 372.056 473.262 375.017 474.374C383.363 466.808 394.501 462.188 406.733 462.188C429.234 462.188 448.033 477.823 452.562 498.676Z" fill="white"/>
<path d="M315.512 613.877C403.116 613.877 480.807 571.439 529.15 506H315.512H101.874C150.217 571.439 227.909 613.877 315.512 613.877Z" fill="white"/>
<path d="M174.834 250.397C178.433 247.121 182.251 247.703 184.232 248.355C185.97 243.878 189.711 238.776 197.749 238.776C212.068 238.776 213.214 252.864 213.214 252.864C223.297 249.813 225.244 258.733 225.244 259.085H171.054C171.054 253.333 174.834 250.397 174.834 250.397Z" fill="white"/>
<path d="M545.731 394.459C549.33 391.182 553.149 391.765 555.13 392.417C556.867 387.94 560.609 382.837 568.647 382.837C582.965 382.837 584.112 396.925 584.112 396.925C594.194 393.875 596.142 402.795 596.142 403.147H541.951C541.951 397.395 545.731 394.459 545.731 394.459Z" fill="white"/>
<path d="M444.433 285.046C447.055 285.046 449.512 285.754 451.642 286.986C455.716 279.882 463.23 275.098 471.853 275.098C479.902 275.098 487.004 279.262 491.226 285.599C493.453 277.967 500.352 272.4 508.525 272.4C517.802 272.4 525.436 279.569 526.463 288.792C527.207 288.672 527.968 288.591 528.747 288.591C534.406 288.591 539.31 291.867 541.772 296.667H430.121C431.649 290.008 437.469 285.046 444.433 285.046Z" fill="white"/>
<path d="M14.3115 332.605C16.9337 332.605 19.3911 333.314 21.5214 334.546C25.5946 327.442 33.1091 322.658 41.7316 322.658C49.781 322.658 56.8825 326.821 61.1047 333.158C63.3319 325.526 70.2305 319.959 78.4039 319.959C87.6809 319.959 95.3149 327.128 96.3417 336.351C97.0864 336.231 97.8469 336.15 98.6254 336.15C104.285 336.15 109.189 339.427 111.651 344.227H0C1.52773 337.567 7.34758 332.605 14.3115 332.605Z" fill="white"/>
<path d="M203.486 167.622C203.486 170.472 201.177 172.782 198.327 172.782C195.477 172.782 193.166 170.472 193.166 167.622C193.166 164.771 195.477 162.463 198.327 162.463C201.177 162.463 203.486 164.771 203.486 167.622Z" fill="#769AD7"/>
<path d="M409.804 140.492L406.713 138.836L406.257 138.38L404.598 135.289C404.181 134.505 403.059 134.505 402.637 135.289L400.981 138.38L400.525 138.836L397.431 140.492C396.651 140.914 396.651 142.036 397.431 142.456L400.525 144.112L400.981 144.568L402.637 147.659C403.059 148.442 404.181 148.442 404.598 147.659L406.257 144.568L406.713 144.112L409.804 142.456C410.587 142.036 410.587 140.914 409.804 140.492Z" fill="#E2EEF9"/>
<path d="M227.594 37.0341L223.695 34.9445C223.453 34.8136 223.252 34.615 223.121 34.3713L221.034 30.4741C220.504 29.488 219.089 29.488 218.561 30.4741L216.471 34.3713C216.34 34.615 216.144 34.8136 215.898 34.9445L212.003 37.0341C211.015 37.5621 211.015 38.977 212.003 39.5051L215.898 41.5947C216.144 41.7256 216.34 41.9242 216.471 42.1679L218.561 46.0651C219.089 47.0512 220.504 47.0512 221.034 46.0651L223.121 42.1679C223.252 41.9242 223.453 41.7256 223.695 41.5947L227.594 39.5051C228.578 38.977 228.578 37.5621 227.594 37.0341Z" fill="#B2D1F0"/>
<path d="M497.946 115.306L493.234 112.779C492.941 112.621 492.697 112.38 492.541 112.086L490.014 107.372C489.375 106.181 487.665 106.181 487.026 107.372L484.499 112.086C484.341 112.38 484.099 112.621 483.806 112.779L479.092 115.306C477.9 115.945 477.9 117.653 479.092 118.294L483.806 120.822C484.099 120.98 484.341 121.219 484.499 121.514L487.026 126.226C487.665 127.42 489.375 127.42 490.014 126.226L492.541 121.514C492.697 121.219 492.941 120.98 493.234 120.822L497.946 118.294C499.14 117.653 499.14 115.945 497.946 115.306Z" fill="#B2D1F0"/>
<path d="M130.618 97.1586L126.304 94.8455C126.033 94.7011 125.812 94.48 125.667 94.2114L123.354 89.8968C122.77 88.8046 121.204 88.8046 120.619 89.8968L118.304 94.2114C118.16 94.48 117.938 94.7011 117.67 94.8455L113.355 97.1586C112.263 97.7453 112.263 99.3092 113.355 99.8959L117.67 102.209C117.938 102.353 118.16 102.574 118.304 102.843L120.619 107.158C121.204 108.25 122.77 108.25 123.354 107.158L125.667 102.843C125.812 102.574 126.033 102.353 126.304 102.209L130.618 99.8959C131.711 99.3092 131.711 97.7453 130.618 97.1586Z" fill="#769AD7"/>
<path d="M471.687 223.775L467.372 221.462C467.101 221.317 466.88 221.096 466.736 220.828L464.423 216.513C463.838 215.421 462.272 215.421 461.688 216.513L459.372 220.828C459.228 221.096 459.007 221.317 458.738 221.462L454.424 223.775C453.331 224.362 453.331 225.925 454.424 226.512L458.738 228.825C459.007 228.97 459.228 229.191 459.372 229.459L461.688 233.774C462.272 234.866 463.838 234.866 464.423 233.774L466.736 229.459C466.88 229.191 467.101 228.97 467.372 228.825L471.687 226.512C472.779 225.925 472.779 224.362 471.687 223.775Z" fill="#769AD7"/>
<path d="M418.752 70.258L415.593 68.5655L415.13 68.1006L413.436 64.9436C413.009 64.1448 411.863 64.1448 411.436 64.9436L409.742 68.1006L409.277 68.5655L406.12 70.258C405.321 70.6867 405.321 71.8331 406.12 72.2618L409.277 73.9543L409.742 74.4192L411.436 77.5762C411.863 78.375 413.009 78.375 413.436 77.5762L415.13 74.4192L415.593 73.9543L418.752 72.2618C419.551 71.8331 419.551 70.6867 418.752 70.258Z" fill="#769AD7"/>
<path d="M330.885 509.476H285.917V298.283H330.885V509.476Z" fill="white"/>
<path d="M325.582 310.346C325.582 301.263 318.219 293.899 309.138 293.899C300.055 293.899 292.692 301.263 292.692 310.346C292.692 310.346 290.568 349.227 309.138 369.925C327.705 349.227 325.582 310.346 325.582 310.346Z" fill="#E2EEF9"/>
<path d="M251.708 221.299C251.708 221.299 190.13 251.12 214.53 339.062C214.53 339.062 227.56 294.855 269.339 283.408L251.708 221.299Z" fill="#769AD7"/>
<path d="M367.123 221.299C367.123 221.299 428.702 251.12 404.299 339.062C404.299 339.062 391.271 294.855 349.492 283.408L367.123 221.299Z" fill="#769AD7"/>
<path d="M329.398 301.748H287.542C285.89 301.748 284.46 300.603 284.094 298.992L281.797 288.858C281.296 286.649 282.977 284.541 285.245 284.541H331.695C333.963 284.541 335.647 286.649 335.143 288.858L332.844 298.992C332.48 300.603 331.048 301.748 329.398 301.748Z" fill="#374783"/>
<path d="M248.069 197.544C248.069 197.544 254.493 256.526 274.347 293.9C274.347 293.9 305.883 278.717 343.26 293.9C343.26 293.9 366.033 262.366 370.707 192.871C373.397 152.827 370.181 107.108 356.919 67.7168H264.289C251.964 99.8058 243.183 142.896 248.069 197.544Z" fill="#B2D1F0"/>
<path d="M301.971 3.80645C292.654 14.3471 276.679 35.4758 264.288 67.7161H356.918C348.433 42.5097 335.841 19.8894 318.014 3.02567C313.426 -1.3138 306.153 -0.925682 301.971 3.80645Z" fill="#374783"/>
<path d="M307.77 194.691C307.77 194.691 279.357 259.251 307.77 336.012C307.77 336.012 339.342 271.96 307.77 194.691Z" fill="#769AD7"/>
<path d="M346.161 134.786C346.161 154.524 330.159 170.526 310.421 170.526C290.684 170.526 274.683 154.524 274.683 134.786C274.683 115.047 290.684 99.0453 310.421 99.0453C330.159 99.0453 346.161 115.047 346.161 134.786Z" fill="#374783"/>
<path d="M335.232 134.785C335.232 148.487 324.125 159.596 310.421 159.596C296.719 159.596 285.609 148.487 285.609 134.785C285.609 121.083 296.719 109.973 310.421 109.973C324.125 109.973 335.232 121.083 335.232 134.785Z" fill="#F4C059"/>
</svg>
