<svg width="90" height="90" viewBox="0 0 90 90" fill="none" xmlns="http://www.w3.org/2000/svg">
<circle cx="45" cy="45" r="45" fill="url(#paint0_linear_246_694)"/>
<rect x="40.0186" y="50.4099" width="9.41258" height="14.1189" fill="#E1EFFC"/>
<circle cx="44.7255" cy="66.4111" r="6.58881" fill="#E1EFFC"/>
<circle cx="44.7251" cy="66.4112" r="2.82377" fill="#849BBF"/>
<path d="M28 23.041C28 21.3615 29.3615 20 31.041 20H58.4099C60.0894 20 61.4509 21.3615 61.4509 23.041V48.3825C61.4509 52.3014 58.274 55.4782 54.3552 55.4782H35.0956C31.1768 55.4782 28 52.3014 28 48.3825V23.041Z" fill="url(#paint1_linear_246_694)"/>
<path d="M28 43.6521H61.4509V48.3825C61.4509 52.3013 58.274 55.4782 54.3552 55.4782H35.0956C31.1768 55.4782 28 52.3013 28 48.3825V43.6521Z" fill="#849BBF"/>
<defs>
<linearGradient id="paint0_linear_246_694" x1="28.5" y1="-11" x2="56" y2="90" gradientUnits="userSpaceOnUse">
<stop stop-color="#426194"/>
<stop offset="1" stop-color="#294470"/>
</linearGradient>
<linearGradient id="paint1_linear_246_694" x1="44.7254" y1="20" x2="44.7254" y2="55.4782" gradientUnits="userSpaceOnUse">
<stop stop-color="#EAF5FF"/>
<stop offset="1" stop-color="#D4E7F8"/>
</linearGradient>
</defs>
</svg>
